<?xml version="1.0" standalone="no"?><!DOCTYPE svg PUBLIC "-//W3C//DTD SVG 1.1//EN" "http://www.w3.org/Graphics/SVG/1.1/DTD/svg11.dtd"><svg t="1545900815589" class="icon" style="" viewBox="0 0 1024 1024" version="1.1" xmlns="http://www.w3.org/2000/svg" p-id="18219" xmlns:xlink="http://www.w3.org/1999/xlink" width="200" height="200"><defs><style type="text/css"></style></defs><path d="M266.23178563 323.99636187a67.37670375 80.34011438 83.22 1 0 159.55655625-18.96948187 67.37670375 80.34011438 83.22 1 0-159.55655625 18.96948188Z" fill="#FF5978" p-id="18220"></path><path d="M287.54356062 549.81967625a67.37670375 80.34011438 83.22 1 0 159.55655532-18.96948188 67.37670375 80.34011438 83.22 1 0-159.55655531 18.96948188Z" fill="#FF5978" p-id="18221"></path><path d="M312.56211125 776.13100906a67.37670375 80.34011438 83.22 1 0 159.55655531-18.96948187 67.37670375 80.34011438 83.22 1 0-159.55655531 18.96948187Z" fill="#FF5978" p-id="18222"></path><path d="M354.26637313 876.07243531c-31.54154531 0-61.01885344-8.00924062-84.22088063-23.20202625-30.46814156-19.8992475-48.88113844-50.44995844-53.09218219-88.18421625-4.37618344-37.73425687 6.27528094-74.39511094 29.31216938-100.40449969 21.38549813-24.52313906 53.58759937-39.38564719 92.97324562-42.936135 37.89939563-3.38534906 73.89969375 4.62389156 101.23019532 22.45890094 30.46814156 19.8992475 48.88113844 50.44995844 53.09218218 88.18421625 4.37618344 37.81682625-6.27528094 74.39511094-29.31216844 100.40449969-21.38549813 24.52313906-53.58759937 39.38564719-92.97324656 42.936135-5.69729438 0.49541719-11.39458969 0.74312531-17.00931468 0.74312531z m1.56881999-222.44220656c-4.54132219 0-9.08264438 0.24770813-13.62396562 0.57798656-30.79842 2.72479312-55.40412844 13.706535-71.09233125 31.78925344l-0.08256938 0.08256937c-16.84417594 18.9909825-24.60570844 46.23891469-21.22035937 74.80795875 6.52299 57.71607375 55.40412844 82.1566425 104.94582188 82.1566425 4.54132219 0 9.08264438-0.24770813 13.62396656-0.57798656 30.79842-2.72479312 55.40412844-13.706535 71.09233125-31.78925344l0.08256937-0.08256937c16.84417594-18.9909825 24.60570844-46.23891469 21.22035844-74.80795875v-0.08256938c-6.52299-57.63350438-55.40412844-82.07407312-104.94582187-82.07407312z" fill="#333333" p-id="18223"></path><path d="M328.09184469 655.19904875c-31.54154531 0-61.01885344-8.00924062-84.22088063-23.20202625-30.46814156-19.8992475-48.88113844-50.44995844-53.09218218-88.18421625-4.37618344-37.73425687 6.27528094-74.39511094 29.31216937-100.40449969 21.38549813-24.52313906 53.58759937-39.38564719 92.97324563-42.936135 37.89939563-3.38534906 73.89969375 4.62389156 101.23019531 22.45890094 30.46814156 19.8992475 48.88113844 50.44995844 53.09218219 88.18421625 4.37618344 37.81682625-6.27528094 74.39511094-29.31216844 100.40449969-21.38549813 24.52313906-53.58759937 39.38564719-92.97324656 42.936135-5.77986469 0.41284781-11.47715906 0.74312531-17.00931469 0.74312531z m1.48625062-222.52477594c-4.54132219 0-9.08264438 0.16513875-13.62396562 0.57798657-30.79842 2.72479312-55.40412844 13.706535-71.09233125 31.78925343l-0.08256938 0.08256938c-16.84417594 18.9909825-24.60570844 46.23891469-21.22035937 74.80795875 6.52299 57.71607375 55.40412844 82.1566425 104.94582187 82.1566425 4.54132219 0 9.08264438-0.24770813 13.62396657-0.57798656 30.79842-2.72479312 55.40412844-13.706535 71.09233124-31.78925344l0.08256938-0.08256938c16.84417594-18.9909825 24.60570844-46.23891469 21.22035844-74.80795875v-0.08256937c-6.52299-57.63350438-55.40412844-82.07407312-104.94582188-82.07407313z" fill="#333333" p-id="18224"></path><path d="M301.58703781 432.261425c-31.54154531 0-61.01885344-8.00924062-84.22087968-23.20202625-30.46814156-19.8992475-48.88113844-50.44995844-53.09218219-88.18421625-4.37618344-37.73425687 6.27528094-74.39511094 29.31216843-100.40449969 21.38549813-24.52313906 53.58759937-39.38564719 92.97324657-42.936135 37.89939563-3.38534906 73.89969375 4.62389156 101.23019531 22.45890094 30.46814156 19.8992475 48.88113844 50.44995844 53.09218219 88.18421625 4.37618344 37.81682625-6.27528094 74.39511094-29.31216938 100.40449969-21.38549813 24.52313906-53.58759937 39.38564719-92.97324562 42.936135-5.77986469 0.49541719-11.39458969 0.74312531-17.00931563 0.74312531z m1.48625157-222.44220656c-4.54132219 0-9.08264438 0.16513875-13.62396657 0.57798656-30.79842 2.72479312-55.40412844 13.706535-71.09233125 31.78925344l-0.08256937 0.08256937c-16.84417594 18.9909825-24.60570844 46.23891469-21.22035844 74.80795875 6.52299 57.71607375 55.40412844 82.1566425 104.94582188 82.1566425 4.54132219 0 9.08264438-0.16513875 13.62396562-0.57798656 30.79842-2.72479312 55.40412844-13.706535 71.09233125-31.78925344l0.08256938-0.08256937c16.84417594-18.9909825 24.60570844-46.23891469 21.22035937-74.80795875v-0.08256938c-6.52299-57.71607375-55.32155812-82.07407312-104.94582187-82.07407312z" fill="#333333" p-id="18225"></path><path d="M290.85300406 192.56219469l-9.08264343-76.62448688c-2.14680656-18.24785719-5.69729438-32.94522656-7.7615325-32.6975175-2.14680656 0.24770813-2.06423719 15.35792531 0.08256937 33.6057825l9.08264438 76.62448688 7.67896218-0.908265z" fill="#FFC04B" p-id="18226"></path><path d="M283.17404188 209.98435719c-8.25694875 0-15.35792531-6.19271156-16.34875876-14.53222969l-9.08264437-76.62448688c-1.15597313-9.41292188-1.73395969-18.41299594-1.73395969-25.43140312 0-3.96333563 0.16513875-7.18354594 0.57798656-9.74320031 2.06423719-14.11938281 12.46799344-16.43132813 15.52306407-16.76160657 3.13764094-0.3302775 13.706535-0.57798656 19.07355281 12.63313219 0.99083344 2.39451562 1.89909844 5.44958625 2.8073625 9.3303525 1.65138937 6.77069813 3.13764094 15.68820281 4.21104375 25.10112469l9.08264437 76.62448687c0.49541719 4.37618344-0.74312531 8.75236594-3.38534906 12.137715-2.72479312 3.46791844-6.68812875 5.69729438-11.06431219 6.1927125l-7.67896218 0.90826407c-0.66055594 0.08256938-1.32111188 0.16513875-1.98166782 0.16513875z" fill="#333333" p-id="18227"></path><path d="M363.34901656 868.4760425l8.83493532 74.31254156c2.14680656 18.24785719 5.69729438 32.94522656 7.7615325 32.6975175 2.14680656-0.24770813 2.06423719-15.35792531-0.08256938-33.6057825l-8.83493531-74.31254062-7.67896313 0.90826406z" fill="#FFC04B" p-id="18228"></path><path d="M380.02805375 992c-4.29361313 0-12.63313219-1.56882-17.09188406-12.79827094-0.99083344-2.39451562-1.89909844-5.44958625-2.80736344-9.3303525-1.65138937-6.77069813-3.13764094-15.68820281-4.21104375-25.10112469l-8.83493531-74.31254156c-0.49541719-4.37618344 0.74312531-8.75236594 3.38534906-12.137715 2.72479312-3.46791844 6.68812875-5.69729438 11.06431219-6.19271156l7.67896219-0.908265c9.08264438-1.07340375 17.25702375 5.36701688 18.33042656 14.44966125l8.83493531 74.31254156c1.15597313 9.41292188 1.73395969 18.41299594 1.73395969 25.43140219 0 3.96333563-0.16513875 7.18354594-0.57798657 9.74320031-2.06423719 14.11938281-12.46799344 16.43132813-15.60563343 16.76160657-0.49541719 0-1.15597313 0.08256938-1.89909844 0.08256937z" fill="#333333" p-id="18229"></path><path d="M338.26536125 338.08707688a14.36709094 14.36709094 0 1 0 28.53323813-3.39228188 14.36709094 14.36709094 0 1 0-28.53323813 3.39228187Z" fill="#333333" p-id="18230"></path><path d="M256.63078906 569.74151094a16.92674531 16.92674531 0 1 0 33.61674563-3.99665344 16.92674531 16.92674531 0 1 0-33.61674563 3.99665344Z" fill="#333333" p-id="18231"></path><path d="M300.3061325 592.69576813a16.92674531 16.92674531 0 1 0 33.61674656-3.99665344 16.92674531 16.92674531 0 1 0-33.61674656 3.99665343Z" fill="#333333" p-id="18232"></path><path d="M703.33694188 360.69444312a80.34011438 67.37670375 20.249 1 0 46.63824656-126.42529406 80.34011438 67.37670375 20.249 1 0-46.63824657 126.42529407Z" fill="#FF5978" p-id="18233"></path><path d="M631.86944 592.25518625a80.34011438 67.37670375 20.249 1 0 46.63824656-126.42529406 80.34011438 67.37670375 20.249 1 0-46.63824656 126.42529406Z" fill="#FF5978" p-id="18234"></path><path d="M553.53924312 824.28999406a80.34011438 67.37670375 20.249 1 0 46.63824657-126.42529406 80.34011438 67.37670375 20.249 1 0-46.63824657 126.42529406Z" fill="#FF5978" p-id="18235"></path><path d="M539.63487875 848.32908688c-14.6148 0-29.64244688-1.65138937-44.504955-5.03673844-0.16513875 0-0.3302775-0.08256938-0.49541719-0.08257031-16.26618937-4.21104375-30.71585062-10.81660313-42.936135-19.65153844-7.43125406-5.36701688-9.08264438-15.68820281-3.7156275-23.0368875 5.36701688-7.43125406 15.68820281-9.08264438 23.03688844-3.7156275 8.83493531 6.35785031 19.48639969 11.22945094 31.62411469 14.36709187 52.34905688 11.72486719 117.9092325-0.66055594 138.55160437-55.40412843 9.57806062-25.34883375 8.42208844-55.81697531-3.05507062-79.51441875 0 0 0-0.08256938-0.08257032-0.08256938-10.98174188-22.87174875-31.1286975-39.05536875-58.45919906-46.73433187-51.60593156-13.62396563-100.56963937-2.477085-124.84506937 28.48647375-5.614725 7.18354594-16.01848125 8.42208844-23.20202625 2.80736343-7.18354594-5.614725-8.42208844-16.01848125-2.8073625-23.20202718 17.09188406-21.798345 42.11044031-36.74342344 72.33087281-43.18384313 27.0827925-5.77986469 57.22065656-4.70646094 87.02824312 3.22021031 0.08256938 0 0.16513875 0.08256938 0.24770813 0.08256938 36.74342344 10.40375531 64.15649437 32.61494906 79.34928094 64.23906281 15.52306406 32.0369625 17.17445437 71.50517813 4.21104375 105.52380938-12.55056281 33.275505-37.89939563 57.79864312-73.40427657 70.92719156-17.91757969 6.60555938-37.98196594 9.99090844-58.87204687 9.99090844z" fill="#333333" p-id="18236"></path><path d="M628.31451125 627.70340844c-15.77077219 0-31.95439312-1.98166781-48.05544375-5.9450025-0.08256938 0-0.24770813-0.08256938-0.3302775-0.08257032-36.74342344-9.90833906-64.23906375-31.95439312-79.51441969-63.82621593-15.52306406-32.0369625-17.17445437-71.50517813-4.21104375-105.52380844 12.55056281-33.52321312 38.06453531-57.8812125 73.56941625-70.59691406 30.88098938-10.98174188 67.78955156-12.137715 103.70727938-3.22021032 0.08256938 0 0.24770813 0.08256938 0.33027843 0.08256938 36.74342344 9.90833906 64.23906375 31.95439312 79.51441875 63.82621594 15.52306406 32.0369625 17.17445437 71.42260875 4.21104375 105.52380937-12.63313219 33.52321312-38.06453531 57.96378188-73.56941531 70.59691407-17.09188406 6.11014219-36.0828675 9.16521375-55.65183656 9.16521281z m-39.96363375-37.981965c12.71570156 3.13764094 26.17452844 4.87159969 39.55078594 4.87159968 41.78016187 0 83.0649075-16.51389844 98.75311031-58.21149093v-0.08256938c9.57806062-25.34883375 8.42208844-55.81697531-3.05507062-79.43184937 0 0 0-0.08256938-0.08256938-0.08256938-10.98174188-22.95431813-31.04612813-38.89023-58.12892156-46.23891469-52.10134875-12.88084031-117.57895406-1.65138937-138.30389625 53.42246063-9.66063 25.34883375-8.42208844 55.81697531 3.05507156 79.51441875v0.08256938c11.06431125 22.78917938 31.21126687 38.80766062 58.21149 46.15634531z" fill="#333333" p-id="18237"></path><path d="M703.70045563 397.91251719c-15.77077219 0-31.95439312-1.98166781-48.05544282-5.94500344-0.08256938 0-0.24770813-0.08256938-0.33027843-0.08256938-36.74342344-9.90833906-64.23906375-31.95439312-79.51441875-63.82621593-15.52306406-32.0369625-17.17445437-71.50517813-4.21104469-105.52380844 12.55056281-33.52321312 38.06453531-57.8812125 73.56941625-70.59691406 30.88098938-10.98174188 67.78955156-12.137715 103.70727937-3.22021032 0.08256938 0 0.24770813 0.08256938 0.33027844 0.08256938 36.74342344 9.90833906 64.23906375 31.95439312 79.51441875 63.82621594 15.52306406 32.0369625 17.17445437 71.50517813 4.21104469 105.52380843-12.63313219 33.52321312-38.06453531 57.8812125-73.56941625 70.596915-17.00931469 6.11014219-36.00029813 9.16521375-55.65183656 9.16521282z m-39.88106344-37.981965c12.71570156 3.13764094 26.17452844 4.87159969 39.55078594 4.87159968 41.78016187 0 83.0649075-16.51389844 98.75311031-58.21149093v-0.08256938c9.57806062-25.34883375 8.42208844-55.81697531-3.05507156-79.43184937v-0.08256938c-10.98174188-22.95431813-31.04612813-38.89023-58.12892063-46.23891469-52.10134875-12.88084031-117.57895406-1.65138937-138.30389625 53.42245969-9.66063 25.43140313-8.42208844 55.81697531 3.05507063 79.51441969 0 0 0 0.08256938 0.08256937 0.08256938 10.8991725 22.87174875 30.96355875 38.89023 58.04635219 46.15634531z" fill="#333333" p-id="18238"></path><path d="M760.75597344 153.50682594L787.50848844 81.09338281c6.35785031-17.25702375 9.90833906-31.87182281 7.92667125-32.61494812-1.98166781-0.74312531-8.83493531 12.71570156-15.19278657 29.97272437l-26.752515 72.41344313 7.26611532 2.64222375z" fill="#FFC04B" p-id="18239"></path><path d="M760.75597344 170.02072437c-1.89909844 0-3.79819687-0.3302775-5.69729438-0.99083437l-7.26611531-2.64222375c-4.12847437-1.48625063-7.43125406-4.62389156-9.24778313-8.58722625-1.81652906-3.96333563-1.98166781-8.50465781-0.49541718-12.63313219l26.752515-72.41344312c3.30277969-8.91750469 6.8532675-17.25702375 9.99090843-23.44973532 1.81652906-3.55048781 3.38534906-6.27528094 4.95416907-8.42208843 8.25694875-11.55972844 18.49556625-8.91750469 21.4680675-7.84410094 2.97250125 1.07340375 12.46799344 5.77986469 11.22945093 19.89924656-0.24770813 2.55965438-0.82569469 5.77986469-1.73395875 9.57806156-1.65138937 6.77069813-4.37618344 15.44049469-7.67896312 24.35799938l-26.752515 72.41344313c-2.477085 6.60555938-8.75236594 10.73403375-15.52306406 10.73403374z" fill="#333333" p-id="18240"></path><path d="M494.13908938 830.24636844l-25.92682032 70.18406718c-6.35785031 17.25702375-9.90833906 31.87182281-7.92667031 32.61494813 1.98166781 0.74312531 8.83493531-12.71570156 15.19278563-29.97272438l25.92682031-70.18406718-7.26611531-2.64222375z" fill="#FFC04B" p-id="18241"></path><path d="M460.53330687 949.64185156c-2.72479312 0-4.87159969-0.66055594-6.02757281-1.07340375-2.97250125-1.07340375-12.46799344-5.77986469-11.22945094-19.89924656 0.24770813-2.64222375 0.82569469-5.77986469 1.73395969-9.57806156 1.65138937-6.77069813 4.37618344-15.44049469 7.67896219-24.35799938l25.92682031-70.18406625c1.48625063-4.12847437 4.62389156-7.43125406 8.58722719-9.24778312s8.50465781-1.98166781 12.63313219-0.49541719l7.26611437 2.64222375c8.58722719 3.13764094 12.96340969 12.63313219 9.74320031 21.22035937l-25.92682031 70.18406625c-3.30277969 8.91750469-6.8532675 17.25702375-9.99090844 23.44973532-1.81652906 3.55048781-3.38534906 6.27528094-4.95416906 8.42208843-5.03673937 7.18354594-10.98174188 8.91750469-15.44049469 8.91750469z" fill="#333333" p-id="18242"></path><path d="M566.89992969 572.76856906a16.59646781 16.59646781 0 1 0 30.14248125-13.89970218 16.59646781 16.59646781 0 1 0-30.14248125 13.89970218Z" fill="#333333" p-id="18243"></path><path d="M617.3872775 292.8379025a12.38542313 12.38542313 0 1 0 8.57320688-23.23994438 12.38542313 12.38542313 0 1 0-8.57320688 23.23994438Z" fill="#333333" p-id="18244"></path></svg>