<?xml version="1.0" standalone="no"?><!DOCTYPE svg PUBLIC "-//W3C//DTD SVG 1.1//EN" "http://www.w3.org/Graphics/SVG/1.1/DTD/svg11.dtd"><svg t="1545898761732" class="icon" style="" viewBox="0 0 1024 1024" version="1.1" xmlns="http://www.w3.org/2000/svg" p-id="3457" xmlns:xlink="http://www.w3.org/1999/xlink" width="200" height="200"><defs><style type="text/css"></style></defs><path d="M480 504.746667L128 356.693333v329.813334a72.106667 72.106667 0 0 0 42.666667 64.853333L477.44 896h2.56zM512 448l363.093333-152.32a69.12 69.12 0 0 0-21.76-16.213333l-307.2-143.786667a79.786667 79.786667 0 0 0-68.266666 0L170.666667 279.466667a69.12 69.12 0 0 0-21.76 16.213333zM544 504.746667V896h2.133333l307.2-144.64a72.106667 72.106667 0 0 0 42.666667-64.426667V356.693333z" p-id="3458" fill="#63D3D7"></path></svg>